<svg xmlns="http://www.w3.org/2000/svg" viewBox="0 0 48 54" fill="none">
  <defs>
    <linearGradient id="s" x1="6" y1="4" x2="42" y2="50" gradientUnits="userSpaceOnUse">
      <stop offset="0" stop-color="#5b93f2"/><stop offset=".55" stop-color="#2c5fce"/><stop offset="1" stop-color="#1a3ea6"/>
    </linearGradient>
  </defs>
  <path d="M8 7 Q8 4.5 10.5 4.5 L37.5 4.5 Q40 4.5 40 7 L40 30 Q40 41 24 49.5 Q8 41 8 30 Z" fill="url(#s)" stroke="#16357f" stroke-width="1.4"/>
  <path d="M13 25 Q24 20 35 27" stroke="#16357f" stroke-width="2" fill="none" opacity=".55" stroke-linecap="round"/>
  <path d="M24 14.5 L34 23 L34 24 L14 24 L14 23 Z" fill="#fff"/>
  <rect x="17" y="13" width="2.6" height="6" fill="#fff"/>
  <rect x="16.5" y="24" width="15" height="10.5" fill="#fff"/>
  <rect x="20.5" y="26.5" width="7" height="6" rx=".6" fill="#1f49bd"/>
  <rect x="23.6" y="26.5" width=".9" height="6" fill="#fff"/>
  <rect x="20.5" y="29.2" width="7" height=".9" fill="#fff"/>
</svg>
